<svg width="28" height="28" viewBox="0 0 28 28" fill="none" xmlns="http://www.w3.org/2000/svg">
<path d="M3.50016 23.0105V24.5003C3.50016 24.8097 3.62308 25.1065 3.84187 25.3253C4.06066 25.5441 4.35741 25.667 4.66683 25.667H5.8335C6.14292 25.667 6.43966 25.5441 6.65845 25.3253C6.87725 25.1065 7.00016 24.8097 7.00016 24.5003V23.3337H21.0002V24.5003C21.0002 24.8097 21.1231 25.1065 21.3419 25.3253C21.5607 25.5441 21.8574 25.667 22.1668 25.667H23.3335C23.6429 25.667 23.9397 25.5441 24.1585 25.3253C24.3772 25.1065 24.5002 24.8097 24.5002 24.5003V23.0105C24.8541 22.8075 25.1483 22.5148 25.3531 22.1619C25.558 21.809 25.6662 21.4084 25.6668 21.0003V17.5003C25.6668 16.5308 25.0753 15.7013 24.2342 15.3478L22.6382 10.5598C22.4066 9.86272 21.9613 9.25631 21.3655 8.82675C20.7696 8.39719 20.0535 8.16634 19.319 8.16699H8.68133C7.94678 8.16634 7.23071 8.39719 6.63486 8.82675C6.03901 9.25631 5.59369 9.86272 5.36216 10.5598L3.76616 15.3478C3.34185 15.5255 2.97949 15.8247 2.7246 16.2076C2.46971 16.5906 2.33365 17.0403 2.3335 17.5003V21.0003C2.3335 21.8613 2.80483 22.6057 3.50016 23.0105ZM6.41683 21.0003C6.18694 21.0003 5.95932 20.9549 5.74696 20.8668C5.53459 20.7788 5.34165 20.6498 5.17915 20.4872C4.85096 20.1588 4.66667 19.7134 4.66683 19.2492C4.66698 18.7849 4.85157 18.3397 5.17998 18.0115C5.50838 17.6833 5.95371 17.499 6.418 17.4992C6.88228 17.4993 7.32749 17.6839 7.65567 18.0123C7.98386 18.3407 8.16815 18.786 8.168 19.2503C8.16784 19.7146 7.98326 20.1598 7.65485 20.488C7.32644 20.8162 6.88111 21.0005 6.41683 21.0003ZM21.5835 21.0003C21.1192 21.0002 20.674 20.8156 20.3458 20.4872C20.0176 20.1588 19.8333 19.7134 19.8335 19.2492C19.8337 18.7849 20.0182 18.3397 20.3466 18.0115C20.6751 17.6833 21.1204 17.499 21.5847 17.4992C22.0489 17.4993 22.4942 17.6839 22.8223 18.0123C23.1505 18.3407 23.3348 18.786 23.3347 19.2503C23.3345 19.7146 23.1499 20.1598 22.8215 20.488C22.4931 20.8162 22.0478 21.0005 21.5835 21.0003ZM8.68133 10.5003H19.3178C19.5628 10.5003 19.8016 10.5773 20.0003 10.7205C20.199 10.8638 20.3476 11.0659 20.425 11.2983L21.7153 15.167H6.285L7.57416 11.2983C7.734 10.8212 8.17966 10.5003 8.68133 10.5003Z" fill="#FF8000"/>
<path d="M25.6668 8.6196V6.1591L14.3688 2.3931C14.1191 2.30952 13.8485 2.31322 13.6012 2.4036L2.3335 6.50093V8.9836L14.0177 4.7346L25.6668 8.6196Z" fill="#FF8000"/>
</svg>
