<svg width="28" height="28" viewBox="0 0 28 28" fill="none" xmlns="http://www.w3.org/2000/svg">
<path fill-rule="evenodd" clip-rule="evenodd" d="M22.2501 22.2478C18.6846 25.8137 13.4049 26.5842 9.08432 24.586C8.44649 24.3292 7.92356 24.1217 7.42643 24.1217C6.04173 24.1299 4.31819 25.4725 3.42242 24.5778C2.52664 23.6819 3.8703 21.957 3.8703 20.564C3.8703 20.0668 3.67098 19.5532 3.41421 18.9141C1.41513 14.5942 2.18662 9.31281 5.75213 5.74808C10.3037 1.19485 17.6985 1.19485 22.2501 5.74691C26.8098 10.3072 26.8016 17.6958 22.2501 22.2478Z" stroke="#FF8000" stroke-width="1.5" stroke-linecap="round" stroke-linejoin="round"/>
<path d="M18.5961 14.4818H18.6066" stroke="#FF8000" stroke-width="2" stroke-linecap="round" stroke-linejoin="round"/>
<path d="M13.9189 14.4818H13.9294" stroke="#FF8000" stroke-width="2" stroke-linecap="round" stroke-linejoin="round"/>
<path d="M9.24166 14.4818H9.25216" stroke="#FF8000" stroke-width="2" stroke-linecap="round" stroke-linejoin="round"/>
</svg>
