<svg width="28" height="28" viewBox="0 0 28 28" fill="none" xmlns="http://www.w3.org/2000/svg">
<path d="M24.5002 6.99967H22.1668L20.6852 5.51801C20.1493 4.98161 19.425 4.67596 18.6668 4.66634H15.7502C15.5868 4.0116 15.2128 3.42866 14.6859 3.0071C14.1589 2.58554 13.5081 2.34871 12.8335 2.33301V9.75301C12.8934 10.9313 13.3592 12.0525 14.1518 12.9263C15.4568 14.1809 17.1637 14.9331 18.9702 15.0497L22.9952 13.4397C23.4674 13.2501 23.8927 12.9598 24.2412 12.5891C24.5898 12.2183 24.8534 11.776 25.0135 11.293L25.6668 9.50801C25.6846 9.3881 25.6846 9.26625 25.6668 9.14634V8.16634C25.6668 7.85692 25.5439 7.56018 25.3251 7.34138C25.1063 7.12259 24.8096 6.99967 24.5002 6.99967ZM18.6668 9.33301C18.4361 9.33301 18.2105 9.26458 18.0187 9.13639C17.8268 9.00819 17.6773 8.82599 17.589 8.6128C17.5007 8.39962 17.4776 8.16505 17.5226 7.93874C17.5676 7.71242 17.6787 7.50454 17.8419 7.34138C18.005 7.17822 18.2129 7.06711 18.4392 7.02209C18.6655 6.97708 18.9001 7.00018 19.1133 7.08848C19.3265 7.17678 19.5087 7.32632 19.6369 7.51818C19.7651 7.71003 19.8335 7.9356 19.8335 8.16634C19.8335 8.47576 19.7106 8.77251 19.4918 8.9913C19.273 9.21009 18.9762 9.33301 18.6668 9.33301Z" fill="#FF8000"/>
<path d="M13.2768 13.6967C12.463 12.8053 11.9312 11.6931 11.7485 10.5H7.00016C6.68841 10.5206 6.37585 10.4744 6.0834 10.3644C5.79096 10.2545 5.52538 10.0833 5.30446 9.86237C5.08353 9.64145 4.91236 9.37587 4.80239 9.08343C4.69242 8.79098 4.64621 8.47842 4.66683 8.16667C4.66683 7.85725 4.54391 7.5605 4.32512 7.34171C4.10633 7.12292 3.80958 7 3.50016 7C3.19074 7 2.894 7.12292 2.6752 7.34171C2.45641 7.5605 2.3335 7.85725 2.3335 8.16667C2.34522 8.9763 2.53648 9.77324 2.8935 10.5C3.28707 11.2631 3.90629 11.8864 4.66683 12.285V25.6667H8.16683V19.8333H15.1668V25.6667H18.6668V16.1817C16.6316 16.0214 14.7204 15.1402 13.2768 13.6967Z" fill="#FF8000"/>
</svg>
