<svg width="20" height="20" viewBox="0 0 20 20" fill="none" xmlns="http://www.w3.org/2000/svg">
<path fill-rule="evenodd" clip-rule="evenodd" d="M8.40025 15.4941H3.14941C2.80441 15.4941 2.52441 15.2141 2.52441 14.8691C2.52441 14.5241 2.80441 14.2441 3.14941 14.2441H8.40025C8.74525 14.2441 9.02525 14.5241 9.02525 14.8691C9.02525 15.2141 8.74525 15.4941 8.40025 15.4941Z" fill="#8C8E98"/>
<path fill-rule="evenodd" clip-rule="evenodd" d="M15.9922 7.41699H10.7422C10.3972 7.41699 10.1172 7.13699 10.1172 6.79199C10.1172 6.44699 10.3972 6.16699 10.7422 6.16699H15.9922C16.3372 6.16699 16.6172 6.44699 16.6172 6.79199C16.6172 7.13699 16.3372 7.41699 15.9922 7.41699Z" fill="#8C8E98"/>
<mask id="mask0_85012_1293" style="mask-type:luminance" maskUnits="userSpaceOnUse" x="2" y="4" width="6" height="6">
<path fill-rule="evenodd" clip-rule="evenodd" d="M2.5 4.16699H7.68817V9.32666H2.5V4.16699Z" fill="white"/>
</mask>
<g mask="url(#mask0_85012_1293)">
<path fill-rule="evenodd" clip-rule="evenodd" d="M5.09417 5.41699C4.35333 5.41699 3.75 6.01366 3.75 6.74783C3.75 7.48116 4.35333 8.07699 5.09417 8.07699C5.83583 8.07699 6.43833 7.48116 6.43833 6.74783C6.43833 6.01366 5.83583 5.41699 5.09417 5.41699ZM5.09417 9.32699C3.66417 9.32699 2.5 8.17033 2.5 6.74783C2.5 5.32533 3.66417 4.16699 5.09417 4.16699C6.525 4.16699 7.68833 5.32533 7.68833 6.74783C7.68833 8.17033 6.525 9.32699 5.09417 9.32699Z" fill="#8C8E98"/>
</g>
<path fill-rule="evenodd" clip-rule="evenodd" d="M14.4895 13.5068C13.7479 13.5068 13.1445 14.1035 13.1445 14.8368C13.1445 15.571 13.7479 16.1668 14.4895 16.1668C15.2304 16.1668 15.8329 15.571 15.8329 14.8368C15.8329 14.1035 15.2304 13.5068 14.4895 13.5068ZM14.4895 17.4168C13.0587 17.4168 11.8945 16.2593 11.8945 14.8368C11.8945 13.4143 13.0587 12.2568 14.4895 12.2568C15.9195 12.2568 17.0829 13.4143 17.0829 14.8368C17.0829 16.2593 15.9195 17.4168 14.4895 17.4168Z" fill="#8C8E98"/>
</svg>
