<svg width="26" height="21" viewBox="0 0 26 21" fill="none" xmlns="http://www.w3.org/2000/svg">
<path fill-rule="evenodd" clip-rule="evenodd" d="M12.6764 20.1384C8.8976 20.1384 5.66943 19.5668 5.66943 17.2778C5.66943 14.9888 8.8766 12.9961 12.6764 12.9961C16.4553 12.9961 19.6834 14.9701 19.6834 17.2579C19.6834 19.5458 16.4763 20.1384 12.6764 20.1384Z" stroke="#191D31" stroke-width="1.5" stroke-linecap="round" stroke-linejoin="round"/>
<path fill-rule="evenodd" clip-rule="evenodd" d="M12.6767 9.73217C15.1571 9.73217 17.1684 7.722 17.1684 5.24167C17.1684 2.76133 15.1571 0.75 12.6767 0.75C10.1964 0.75 8.18508 2.76133 8.18508 5.24167C8.17808 7.71267 10.1731 9.724 12.6452 9.73217H12.6767Z" stroke="#191D31" stroke-width="1.5" stroke-linecap="round" stroke-linejoin="round"/>
<path d="M20.1312 8.49854C21.5743 8.11237 22.6383 6.79637 22.6383 5.22954C22.6383 3.59504 21.4798 2.23004 19.9375 1.91504" stroke="#191D31" stroke-width="1.5" stroke-linecap="round" stroke-linejoin="round"/>
<path d="M20.8091 12.1768C22.8554 12.1768 24.6031 13.5639 24.6031 14.8029C24.6031 15.5321 23.9999 16.3266 23.0852 16.5413" stroke="#191D31" stroke-width="1.5" stroke-linecap="round" stroke-linejoin="round"/>
<path d="M5.22318 8.49854C3.77884 8.11237 2.71484 6.79637 2.71484 5.22954C2.71484 3.59504 3.87451 2.23004 5.41568 1.91504" stroke="#191D31" stroke-width="1.5" stroke-linecap="round" stroke-linejoin="round"/>
<path d="M4.544 12.1768C2.49767 12.1768 0.75 13.5639 0.75 14.8029C0.75 15.5321 1.35317 16.3266 2.269 16.5413" stroke="#191D31" stroke-width="1.5" stroke-linecap="round" stroke-linejoin="round"/>
</svg>
