<svg width="28" height="28" viewBox="0 0 28 28" fill="none" xmlns="http://www.w3.org/2000/svg">
<path d="M7.00016 5.83301V22.1663H10.5002V15.1663H17.5002V22.1663H21.0002V5.83301H17.5002V12.833H10.5002V5.83301H7.00016ZM3.50016 17.4997C3.50016 17.8091 3.62308 18.1058 3.84187 18.3246C4.06066 18.5434 4.35741 18.6663 4.66683 18.6663H5.8335V9.33301H4.66683C4.35741 9.33301 4.06066 9.45592 3.84187 9.67472C3.62308 9.89351 3.50016 10.1903 3.50016 10.4997V12.833H2.3335V15.1663H3.50016V17.4997ZM24.5002 10.4997C24.5002 10.1903 24.3772 9.89351 24.1585 9.67472C23.9397 9.45592 23.6429 9.33301 23.3335 9.33301H22.1668V18.6663H23.3335C23.6429 18.6663 23.9397 18.5434 24.1585 18.3246C24.3772 18.1058 24.5002 17.8091 24.5002 17.4997V15.1663H25.6668V12.833H24.5002V10.4997Z" fill="#FF8000"/>
</svg>
