<svg width="28" height="28" viewBox="0 0 28 28" fill="none" xmlns="http://www.w3.org/2000/svg">
<path d="M4.66667 25.6663H23.3333C23.6428 25.6663 23.9395 25.5434 24.1583 25.3246C24.3771 25.1058 24.5 24.8091 24.5 24.4997V5.83301C24.5 3.90334 22.9297 2.33301 21 2.33301H7C5.07033 2.33301 3.5 3.90334 3.5 5.83301V24.4997C3.5 24.8091 3.62292 25.1058 3.84171 25.3246C4.0605 25.5434 4.35725 25.6663 4.66667 25.6663ZM21 4.57767C21.1532 4.57767 21.3049 4.60785 21.4465 4.66648C21.588 4.72511 21.7166 4.81105 21.825 4.91938C21.9333 5.02772 22.0192 5.15633 22.0779 5.29788C22.1365 5.43942 22.1667 5.59113 22.1667 5.74434C22.1667 5.89755 22.1365 6.04926 22.0779 6.19081C22.0192 6.33235 21.9333 6.46096 21.825 6.5693C21.7166 6.67763 21.588 6.76357 21.4465 6.8222C21.3049 6.88083 21.1532 6.91101 21 6.91101C20.6906 6.91101 20.3938 6.78809 20.175 6.5693C19.9562 6.35051 19.8333 6.05376 19.8333 5.74434C19.8333 5.43492 19.9562 5.13818 20.175 4.91938C20.3938 4.70059 20.6906 4.57767 21 4.57767ZM17.5 4.57767C17.6532 4.57767 17.8049 4.60785 17.9465 4.66648C18.088 4.72511 18.2166 4.81105 18.325 4.91938C18.4333 5.02772 18.5192 5.15633 18.5779 5.29788C18.6365 5.43942 18.6667 5.59113 18.6667 5.74434C18.6667 5.89755 18.6365 6.04926 18.5779 6.19081C18.5192 6.33235 18.4333 6.46096 18.325 6.5693C18.2166 6.67763 18.088 6.76357 17.9465 6.8222C17.8049 6.88083 17.6532 6.91101 17.5 6.91101C17.1906 6.91101 16.8938 6.78809 16.675 6.5693C16.4562 6.35051 16.3333 6.05376 16.3333 5.74434C16.3333 5.43492 16.4562 5.13818 16.675 4.91938C16.8938 4.70059 17.1906 4.57767 17.5 4.57767ZM14 8.16634C17.8605 8.16634 21 11.3058 21 15.1663C21 19.0268 17.8605 22.1663 14 22.1663C10.1395 22.1663 7 19.0268 7 15.1663C7 11.3058 10.1395 8.16634 14 8.16634Z" fill="#FF8000"/>
<path d="M14.8937 19.7502C16.5259 19.4457 17.8932 18.216 18.4205 16.641C18.8024 15.5356 18.7383 14.3248 18.242 13.2658C18.1876 13.1494 18.095 13.055 17.9795 12.9986C17.864 12.9421 17.7327 12.9269 17.6074 12.9555C16.9027 13.1293 16.4185 13.4782 15.8574 13.89C14.9404 14.5632 13.7982 15.3997 11.6667 15.3997C10.7182 15.3997 9.97503 15.2293 9.35203 14.9867L9.33687 14.9972C9.31219 15.6994 9.4462 16.3982 9.72891 17.0416C10.0116 17.6849 10.4357 18.2562 10.9698 18.7129C11.5038 19.1697 12.1339 19.5002 12.8133 19.6797C13.4926 19.8593 14.2037 19.8834 14.8937 19.7502Z" fill="#FF8000"/>
</svg>
