<svg width="44" height="44" viewBox="0 0 44 44" fill="none" xmlns="http://www.w3.org/2000/svg">
<rect width="44" height="44" rx="22" fill="white"/>
<mask id="mask0_85012_1285" style="mask-type:luminance" maskUnits="userSpaceOnUse" x="13" y="11" width="18" height="17">
<path fill-rule="evenodd" clip-rule="evenodd" d="M13.75 11.917H30.7055V27.8193H13.75V11.917Z" fill="white"/>
</mask>
<g mask="url(#mask0_85012_1285)">
<path fill-rule="evenodd" clip-rule="evenodd" d="M22.2264 13.292C19.0227 13.292 16.7897 15.8018 16.7897 18.0541C16.7897 19.9598 16.2608 20.8407 15.7933 21.6181C15.4183 22.2423 15.1223 22.7355 15.1223 23.8071C15.2753 25.5359 16.4166 26.4443 22.2264 26.4443C28.0042 26.4443 29.1812 25.4956 29.3333 23.7475C29.3306 22.7355 29.0345 22.2423 28.6596 21.6181C28.1921 20.8407 27.6632 19.9598 27.6632 18.0541C27.6632 15.8018 25.4302 13.292 22.2264 13.292ZM22.2264 27.8193C17.9401 27.8193 14.0663 27.5168 13.75 23.8657C13.7473 22.3551 14.2083 21.5869 14.6153 20.9104C15.0269 20.2247 15.4147 19.5785 15.4147 18.0541C15.4147 15.0905 18.1518 11.917 22.2264 11.917C26.301 11.917 29.0382 15.0905 29.0382 18.0541C29.0382 19.5785 29.4259 20.2247 29.8375 20.9104C30.2445 21.5869 30.7056 22.3551 30.7056 23.8071C30.3857 27.5168 26.5128 27.8193 22.2264 27.8193Z" fill="#191D31"/>
</g>
<path fill-rule="evenodd" clip-rule="evenodd" d="M22.1819 31.6251H22.1801C21.1525 31.6241 20.1799 31.1713 19.442 30.3491C19.1881 30.0676 19.211 29.6322 19.4933 29.3792C19.7757 29.1244 20.2102 29.1473 20.4641 29.4306C20.9389 29.9595 21.5485 30.2501 22.181 30.2501H22.1819C22.8172 30.2501 23.4295 29.9595 23.9053 29.4296C24.1601 29.1482 24.5946 29.1253 24.876 29.3792C25.1583 29.6331 25.1813 30.0686 24.9273 30.35C24.1867 31.1722 23.2123 31.6251 22.1819 31.6251Z" fill="#191D31"/>
<circle cx="27" cy="17" r="4" fill="#FF8000"/>
</svg>
