<svg width="18" height="24" viewBox="0 0 18 24" fill="none" xmlns="http://www.w3.org/2000/svg">
<path fill-rule="evenodd" clip-rule="evenodd" d="M8.7353 23.2217C4.42818 23.2217 0.75 22.5515 0.75 19.8673C0.75 17.183 4.40485 14.7051 8.7353 14.7051C13.0424 14.7051 16.7206 17.159 16.7206 19.8432C16.7206 22.5264 13.0658 23.2217 8.7353 23.2217Z" stroke="#191D31" stroke-width="1.5" stroke-linecap="round" stroke-linejoin="round"/>
<path fill-rule="evenodd" clip-rule="evenodd" d="M8.72691 10.9859C11.5534 10.9859 13.8443 8.695 13.8443 5.86848C13.8443 3.04197 11.5534 0.75 8.72691 0.75C5.9004 0.75 3.60843 3.04197 3.60843 5.86848C3.59888 8.68545 5.87388 10.9764 8.69085 10.9859C8.70358 10.9859 8.71525 10.9859 8.72691 10.9859Z" stroke="#191D31" stroke-width="1.5" stroke-linecap="round" stroke-linejoin="round"/>
</svg>
