<svg width="10" height="10" viewBox="0 0 10 10" fill="none" xmlns="http://www.w3.org/2000/svg">
<path d="M7.46587 5.96699C7.35796 6.07158 7.30837 6.22283 7.33296 6.37116L7.70337 8.42116C7.73462 8.59491 7.66129 8.77074 7.51587 8.87116C7.37337 8.97533 7.18379 8.98783 7.02837 8.90449L5.18296 7.94199C5.11879 7.90782 5.04754 7.88949 4.97462 7.88741H4.86171C4.82254 7.89324 4.78421 7.90574 4.74921 7.92491L2.90337 8.89199C2.81212 8.93783 2.70879 8.95408 2.60754 8.93783C2.36087 8.89116 2.19629 8.65616 2.23671 8.40824L2.60754 6.35824C2.63212 6.20866 2.58254 6.05658 2.47462 5.95033L0.970039 4.49199C0.844206 4.36991 0.800456 4.18658 0.857956 4.02116C0.913789 3.85616 1.05629 3.73574 1.22837 3.70866L3.29921 3.40824C3.45671 3.39199 3.59504 3.29616 3.66587 3.15449L4.57837 1.28366C4.60004 1.24199 4.62796 1.20366 4.66171 1.17116L4.69921 1.14199C4.71879 1.12033 4.74129 1.10241 4.76629 1.08783L4.81171 1.07116L4.88254 1.04199H5.05796C5.21462 1.05824 5.35254 1.15199 5.42462 1.29199L6.34921 3.15449C6.41587 3.29074 6.54546 3.38533 6.69504 3.40824L8.76587 3.70866C8.94087 3.73366 9.08712 3.85449 9.14504 4.02116C9.19962 4.18824 9.15254 4.37158 9.02421 4.49199L7.46587 5.96699Z" fill="url(#paint0_linear_151519_21)"/>
<defs>
<linearGradient id="paint0_linear_151519_21" x1="9.16743" y1="8.95919" x2="-0.667285" y2="5.95743" gradientUnits="userSpaceOnUse">
<stop stop-color="#FB9400"/>
<stop offset="1" stop-color="#FFAB38"/>
</linearGradient>
</defs>
</svg>
