<svg width="28" height="28" viewBox="0 0 28 28" fill="none" xmlns="http://www.w3.org/2000/svg">
<path d="M22.1701 9.33833C23.4601 9.33833 24.5058 8.29261 24.5058 7.00266C24.5058 5.71271 23.4601 4.66699 22.1701 4.66699C20.8802 4.66699 19.8345 5.71271 19.8345 7.00266C19.8345 8.29261 20.8802 9.33833 22.1701 9.33833Z" fill="#FF8000"/>
<path d="M22.021 15.4224C21.3595 15.9509 20.88 16.3336 19.83 16.3336C18.7812 16.3336 18.3273 15.9708 17.6413 15.4224C16.848 14.7889 15.8622 14.0003 13.9932 14.0003C12.1253 14.0003 11.1407 14.7889 10.3485 15.4224C9.6625 15.9708 9.211 16.3336 8.161 16.3336C7.11333 16.3336 6.66066 15.9708 5.97583 15.4236C5.18366 14.7889 4.20016 14.0003 2.3335 14.0003V16.3336C3.38 16.3336 3.83266 16.6964 4.5175 17.2436C5.30966 17.8783 6.29433 18.6669 8.161 18.6669C10.0277 18.6669 11.0147 17.8783 11.8068 17.2436C12.4917 16.6953 12.9455 16.3336 13.9932 16.3336C15.0432 16.3336 15.5227 16.7163 16.1842 17.2448C16.9763 17.8783 17.9622 18.6669 19.83 18.6669C21.699 18.6669 22.6848 17.8783 23.4782 17.2448C24.1642 16.6964 24.618 16.3336 25.6668 16.3336V14.0003C23.799 14.0003 22.8132 14.7889 22.021 15.4224ZM19.83 22.1669C18.7812 22.1669 18.3273 21.8041 17.6413 21.2558C16.848 20.6223 15.8622 19.8336 13.9932 19.8336C12.1253 19.8336 11.1407 20.6223 10.3485 21.2558C9.6625 21.8041 9.211 22.1669 8.161 22.1669C7.11333 22.1669 6.66066 21.8041 5.97583 21.2569C5.18366 20.6223 4.20016 19.8336 2.3335 19.8336V22.1669C3.38 22.1669 3.83266 22.5298 4.5175 23.0769C5.30966 23.7116 6.29433 24.5003 8.161 24.5003C10.0277 24.5003 11.0147 23.7116 11.8068 23.0769C12.4917 22.5286 12.9455 22.1669 13.9932 22.1669C15.0432 22.1669 15.5227 22.5496 16.1842 23.0781C16.9763 23.7116 17.9622 24.5003 19.83 24.5003C21.699 24.5003 22.6848 23.7116 23.4782 23.0781C24.1642 22.5298 24.618 22.1669 25.6668 22.1669V19.8336C23.799 19.8336 22.8132 20.6223 22.021 21.2558C21.3595 21.7843 20.88 22.1669 19.83 22.1669ZM12.8335 6.32243L15.2882 8.77709L12.8883 11.7754C13.222 11.7101 13.5837 11.6669 13.9932 11.6669C15.8622 11.6669 16.848 12.4556 17.6413 13.0891C18.3273 13.6374 18.7812 14.0003 19.83 14.0003C20.88 14.0003 21.3595 13.6176 22.021 13.0891C22.175 12.9666 22.3407 12.8359 22.5145 12.7088L20.0692 10.2704L20.075 10.2646L13.6583 3.84793C13.5501 3.73949 13.4215 3.65346 13.28 3.59477C13.1384 3.53607 12.9867 3.50586 12.8335 3.50586C12.6803 3.50586 12.5286 3.53607 12.387 3.59477C12.2455 3.65346 12.1169 3.73949 12.0087 3.84793L7.342 8.51459L8.99166 10.1643L12.8335 6.32243Z" fill="#FF8000"/>
</svg>
