<svg width="28" height="28" viewBox="0 0 28 28" fill="none" xmlns="http://www.w3.org/2000/svg">
<path d="M13.9998 7.00033C18.1263 7.00033 21.9763 8.57883 24.8416 11.4442L26.4913 9.79449C23.1861 6.48816 18.7493 4.66699 13.9998 4.66699C9.2503 4.66816 4.81347 6.48816 1.5083 9.79449L3.15797 11.4442C6.0233 8.57883 9.8733 7.00033 13.9998 7.00033ZM20.616 16.6918C17.0296 13.1055 10.97 13.1055 7.38363 16.6918L9.0333 18.3415C11.7248 15.65 16.2748 15.65 18.9663 18.3415L20.616 16.6918Z" fill="#FF8000"/>
<path d="M23.8434 13.1751C18.5094 7.83877 9.4922 7.83877 4.1582 13.1751L5.80787 14.8248C10.2494 10.3833 17.7522 10.3833 22.1937 14.8248L23.8434 13.1751Z" fill="#FF8000"/>
<path d="M13.9998 23.3337C15.2885 23.3337 16.3332 22.289 16.3332 21.0003C16.3332 19.7117 15.2885 18.667 13.9998 18.667C12.7112 18.667 11.6665 19.7117 11.6665 21.0003C11.6665 22.289 12.7112 23.3337 13.9998 23.3337Z" fill="#FF8000"/>
</svg>
